# xmcd
#
# Track frame offsets:
#	150
#	19105
#	38083
#	56997
#	75884
#	91149
#	106414
#	126784
#	147177
#	162185
#	177111
#	192310
#	207508
#	231049
#	254634
#	274808
#	306222
#
# Disc length: 4120 seconds
# Revision: 0
# Processed by: cddbd v1.5.2PL0 Copyright (c) Steve Scherf et al.
# Submitted via: dBpowerAMP V12.0
#
DISCID=e7101611
DTITLE=Various Artist - Guitar Play-along - Robert Johnson
DYEAR=1989
DGENRE=Blues
TTITLE0=Keb' Mo' - Come On in My Kitchen
TTITLE1=Keb' Mo' - Play Along -  Come On in My Kitchen
TTITLE2=Cream - Cross Road Blues
TTITLE3=Cream - Play Along -  Cross Road Blues
TTITLE4=Canned Heat - I Believe I'll Dust My Broom
TTITLE5=Canned Heat - Play Along - I Believe I'll Dust My Broom
TTITLE6=The Rolling Stones - Love in Vain Blues
TTITLE7=The Rolling Stones - Play Along - Love in Vain Blues
TTITLE8=Eric Clapton - Ramblin' on My Mind
TTITLE9=Eric Clapton - Play Along - Ramblin' on My Mind
TTITLE10=Various Artist - Sweet Home Chicago
TTITLE11=Various Artist - Play Along - Sweet Home Chicago
TTITLE12=Led Zeppelin - Traveling Riverside Blues
TTITLE13=Led Zeppelin - Play Along - Traveling Riverside Blues
TTITLE14=Joe Bonamassa - Walkin' Blues
TTITLE15=Joe Bonamassa - Play Along - Walkin' Blues
TTITLE16=DATA
EXTD=
EXTT0=
EXTT1=
EXTT2=
EXTT3=
EXTT4=
EXTT5=
EXTT6=
EXTT7=
EXTT8=
EXTT9=
EXTT10=
EXTT11=
EXTT12=
EXTT13=
EXTT14=
EXTT15=
EXTT16=
PLAYORDER=
